<svg width="32" height="32" viewBox="0 0 32 32" fill="none" xmlns="http://www.w3.org/2000/svg">
<path fill-rule="evenodd" clip-rule="evenodd" d="M15.0666 25.3333C14.5779 25.3333 14.1609 24.9795 14.0813 24.4973C14.008 24.1071 13.7271 23.7884 13.3493 23.6666C13.0414 23.5609 12.7404 23.4363 12.448 23.2933C12.1 23.1153 11.6825 23.1419 11.36 23.3626C10.9696 23.6433 10.4334 23.5999 10.0933 23.26L8.77064 21.9373C8.41468 21.5813 8.36843 21.0201 8.66131 20.6106C8.88718 20.2806 8.91971 19.8551 8.74664 19.4946C8.6326 19.2442 8.53201 18.9878 8.44531 18.7266C8.32113 18.3151 7.97835 18.0067 7.55597 17.9266C7.04661 17.8452 6.6706 17.4078 6.66664 16.892V15.2373C6.66393 14.6427 7.09336 14.1342 7.67997 14.0373C8.12499 13.9526 8.49659 13.6478 8.66664 13.228C8.71731 13.1097 8.77064 12.9924 8.82664 12.876C9.0528 12.4405 9.02156 11.9161 8.74531 11.5106C8.39982 11.0305 8.45287 10.3707 8.87064 9.95196L9.84264 8.97996C10.322 8.50039 11.0781 8.43833 11.6293 8.83329L11.66 8.85463C12.0716 9.13164 12.5953 9.18181 13.052 8.98796C13.5405 8.81211 13.9006 8.39228 14 7.88263L14.0133 7.83729C14.1231 7.16259 14.7057 6.6669 15.3893 6.66663H16.5626C17.2647 6.66631 17.8638 7.17406 17.9786 7.86663L18 7.95996C18.0942 8.44819 18.4356 8.85225 18.9013 9.02663C19.3501 9.21925 19.8662 9.16895 20.2693 8.89329L20.336 8.84529C20.9015 8.43775 21.6791 8.50043 22.172 8.99329L23.0666 9.88929C23.515 10.3402 23.5714 11.0492 23.2 11.5653C22.909 11.9967 22.8718 12.551 23.1026 13.0173L23.16 13.1506C23.3469 13.6059 23.7512 13.9359 24.2346 14.028C24.8665 14.131 25.3312 14.6758 25.3333 15.316V16.8C25.3331 17.3645 24.9248 17.8461 24.368 17.9386C23.91 18.0264 23.5369 18.3581 23.396 18.8026C23.3338 18.9804 23.2644 19.1582 23.188 19.336C23.0101 19.7266 23.0495 20.1818 23.292 20.536C23.6119 20.981 23.5622 21.5924 23.1746 21.98L21.9333 23.2226C21.5783 23.5776 21.0185 23.6233 20.6106 23.3306C20.2702 23.098 19.8291 23.0724 19.464 23.264C19.2038 23.3928 18.9367 23.5072 18.664 23.6066C18.2826 23.7382 18.0015 24.0646 17.928 24.4613C17.8502 24.9603 17.4223 25.3295 16.9173 25.3333H15.0666Z" stroke="white" stroke-width="1.5" stroke-linecap="round" stroke-linejoin="round"/>
<path fill-rule="evenodd" clip-rule="evenodd" d="M19.1106 15.9999C19.1106 17.7179 17.7179 19.1106 15.9999 19.1106C14.282 19.1106 12.8893 17.7179 12.8893 15.9999C12.8893 14.282 14.282 12.8893 15.9999 12.8893C17.7179 12.8893 19.1106 14.282 19.1106 15.9999Z" stroke="white" stroke-width="1.5" stroke-linecap="round" stroke-linejoin="round"/>
</svg>
