<svg width="28" height="28" viewBox="0 0 28 28" fill="none" xmlns="http://www.w3.org/2000/svg">
<path d="M10.5365 20.5833H15.9595C15.8512 21.2241 15.5194 21.8057 15.0231 22.2252C14.5267 22.6447 13.8979 22.8748 13.248 22.8748C12.5982 22.8748 11.9693 22.6447 11.473 22.2252C10.9766 21.8057 10.6449 21.2241 10.5365 20.5833ZM13.248 5C15.0714 5 16.8201 5.72433 18.1094 7.01364C19.3987 8.30295 20.123 10.0516 20.123 11.875V15.5417L21.4229 18.4383C21.482 18.5708 21.507 18.716 21.4958 18.8606C21.4845 19.0052 21.4373 19.1447 21.3585 19.2665C21.2796 19.3883 21.1716 19.4884 21.0442 19.5578C20.9168 19.6272 20.7741 19.6637 20.629 19.6639H5.87069C5.72543 19.6639 5.58248 19.6275 5.45486 19.5581C5.32724 19.4888 5.21901 19.3885 5.14002 19.2666C5.06102 19.1447 5.01378 19.005 5.00259 18.8602C4.9914 18.7153 5.01661 18.57 5.07594 18.4374L6.37303 15.5407V11.8631L6.37761 11.6339C6.44031 9.85361 7.19161 8.16716 8.4732 6.92985C9.75479 5.69254 11.4666 5.00008 13.248 5Z" fill="#D8FC4A"/>
</svg>
