<svg width="218" height="53" viewBox="0 0 218 53" fill="none" xmlns="http://www.w3.org/2000/svg">
<g filter="url(#filter0_d_321_359)">
<mask id="path-1-inside-1_321_359" fill="white">
<path fill-rule="evenodd" clip-rule="evenodd" d="M23 7C14.1634 7 7 14.1634 7 23C7 31.8366 14.1634 39 23 39H104.459L108.5 46L112.541 39H195C203.837 39 211 31.8366 211 23C211 14.1634 203.837 7 195 7H23Z"/>
</mask>
<path fill-rule="evenodd" clip-rule="evenodd" d="M23 7C14.1634 7 7 14.1634 7 23C7 31.8366 14.1634 39 23 39H104.459L108.5 46L112.541 39H195C203.837 39 211 31.8366 211 23C211 14.1634 203.837 7 195 7H23Z" fill="black"/>
<path d="M104.459 39L105.325 38.5L105.036 38H104.459V39ZM108.5 46L107.634 46.5L108.5 48L109.366 46.5L108.5 46ZM112.541 39V38H111.964L111.675 38.5L112.541 39ZM8 23C8 14.7157 14.7157 8 23 8V6C13.6112 6 6 13.6112 6 23H8ZM23 38C14.7157 38 8 31.2843 8 23H6C6 32.3888 13.6112 40 23 40V38ZM104.459 38H23V40H104.459V38ZM109.366 45.5L105.325 38.5L103.593 39.5L107.634 46.5L109.366 45.5ZM111.675 38.5L107.634 45.5L109.366 46.5L113.407 39.5L111.675 38.5ZM195 38H112.541V40H195V38ZM210 23C210 31.2843 203.284 38 195 38V40C204.389 40 212 32.3888 212 23H210ZM195 8C203.284 8 210 14.7157 210 23H212C212 13.6112 204.389 6 195 6V8ZM23 8H195V6H23V8Z" fill="#D8FC4A" mask="url(#path-1-inside-1_321_359)"/>
</g>
<defs>
<filter id="filter0_d_321_359" x="0" y="0" width="218" height="53" filterUnits="userSpaceOnUse" color-interpolation-filters="sRGB">
<feFlood flood-opacity="0" result="BackgroundImageFix"/>
<feColorMatrix in="SourceAlpha" type="matrix" values="0 0 0 0 0 0 0 0 0 0 0 0 0 0 0 0 0 0 127 0" result="hardAlpha"/>
<feOffset/>
<feGaussianBlur stdDeviation="3.5"/>
<feComposite in2="hardAlpha" operator="out"/>
<feColorMatrix type="matrix" values="0 0 0 0 0.848627 0 0 0 0 0.988235 0 0 0 0 0.290196 0 0 0 0.6 0"/>
<feBlend mode="normal" in2="BackgroundImageFix" result="effect1_dropShadow_321_359"/>
<feBlend mode="normal" in="SourceGraphic" in2="effect1_dropShadow_321_359" result="shape"/>
</filter>
</defs>
</svg>
