<svg width="32" height="32" viewBox="0 0 32 32" fill="none" xmlns="http://www.w3.org/2000/svg">
<path fill-rule="evenodd" clip-rule="evenodd" d="M21.5562 12H10.4442C9.83076 12 9.3335 12.4973 9.3335 13.1107V22C9.3335 23.8409 10.8259 25.3333 12.6668 25.3333H19.3335C20.2176 25.3333 21.0654 24.9821 21.6905 24.357C22.3156 23.7319 22.6668 22.8841 22.6668 22V13.1107C22.6668 12.4973 22.1696 12 21.5562 12Z" stroke="white" stroke-width="2" stroke-linecap="round" stroke-linejoin="round"/>
<path fill-rule="evenodd" clip-rule="evenodd" d="M20 9.33317L19.0347 7.40384C18.809 6.9522 18.3476 6.66677 17.8427 6.6665H14.1573C13.6524 6.66677 13.191 6.9522 12.9653 7.40384L12 9.33317H20Z" stroke="white" stroke-width="2" stroke-linecap="round" stroke-linejoin="round"/>
<path d="M14.7776 16.4438C14.7776 15.8915 14.3299 15.4438 13.7776 15.4438C13.2253 15.4438 12.7776 15.8915 12.7776 16.4438H14.7776ZM12.7776 20.8878C12.7776 21.4401 13.2253 21.8878 13.7776 21.8878C14.3299 21.8878 14.7776 21.4401 14.7776 20.8878H12.7776ZM19.2229 16.4438C19.2229 15.8915 18.7752 15.4438 18.2229 15.4438C17.6707 15.4438 17.2229 15.8915 17.2229 16.4438H19.2229ZM17.2229 20.8878C17.2229 21.4401 17.6707 21.8878 18.2229 21.8878C18.7752 21.8878 19.2229 21.4401 19.2229 20.8878H17.2229ZM20.0003 8.33313C19.448 8.33313 19.0003 8.78084 19.0003 9.33313C19.0003 9.88541 19.448 10.3331 20.0003 10.3331V8.33313ZM22.667 10.3331C23.2192 10.3331 23.667 9.88541 23.667 9.33313C23.667 8.78084 23.2192 8.33313 22.667 8.33313V10.3331ZM12.0003 10.3331C12.5526 10.3331 13.0003 9.88541 13.0003 9.33313C13.0003 8.78084 12.5526 8.33313 12.0003 8.33313V10.3331ZM9.33362 8.33313C8.78133 8.33313 8.33362 8.78084 8.33362 9.33313C8.33362 9.88541 8.78133 10.3331 9.33362 10.3331V8.33313ZM12.7776 16.4438V20.8878H14.7776V16.4438H12.7776ZM17.2229 16.4438V20.8878H19.2229V16.4438H17.2229ZM20.0003 10.3331H22.667V8.33313H20.0003V10.3331ZM12.0003 8.33313H9.33362V10.3331H12.0003V8.33313Z" fill="white"/>
</svg>
