<svg width="32" height="32" viewBox="0 0 32 32" fill="none" xmlns="http://www.w3.org/2000/svg">
<path fill-rule="evenodd" clip-rule="evenodd" d="M21.5559 12H10.4439C9.83051 12 9.33325 12.4973 9.33325 13.1107V22C9.33325 23.8409 10.8256 25.3333 12.6666 25.3333H19.3333C20.2173 25.3333 21.0652 24.9821 21.6903 24.357C22.3154 23.7319 22.6666 22.8841 22.6666 22V13.1107C22.6666 12.4973 22.1693 12 21.5559 12Z" stroke="white" stroke-width="2" stroke-linecap="round" stroke-linejoin="round"/>
<path fill-rule="evenodd" clip-rule="evenodd" d="M20 9.33366L19.0347 7.40433C18.809 6.95269 18.3476 6.66726 17.8427 6.66699H14.1573C13.6524 6.66726 13.191 6.95269 12.9653 7.40433L12 9.33366H20Z" stroke="white" stroke-width="2" stroke-linecap="round" stroke-linejoin="round"/>
<path d="M14.7773 16.4447C14.7773 15.8924 14.3296 15.4447 13.7773 15.4447C13.225 15.4447 12.7773 15.8924 12.7773 16.4447H14.7773ZM12.7773 20.8887C12.7773 21.441 13.225 21.8887 13.7773 21.8887C14.3296 21.8887 14.7773 21.441 14.7773 20.8887H12.7773ZM19.2226 16.4447C19.2226 15.8924 18.7749 15.4447 18.2226 15.4447C17.6703 15.4447 17.2226 15.8924 17.2226 16.4447H19.2226ZM17.2226 20.8887C17.2226 21.441 17.6703 21.8887 18.2226 21.8887C18.7749 21.8887 19.2226 21.441 19.2226 20.8887H17.2226ZM20 8.33403C19.4477 8.33403 19 8.78174 19 9.33403C19 9.88631 19.4477 10.334 20 10.334V8.33403ZM22.6666 10.334C23.2189 10.334 23.6666 9.88631 23.6666 9.33403C23.6666 8.78174 23.2189 8.33403 22.6666 8.33403V10.334ZM12 10.334C12.5522 10.334 13 9.88631 13 9.33403C13 8.78174 12.5522 8.33403 12 8.33403V10.334ZM9.33329 8.33403C8.78101 8.33403 8.33329 8.78174 8.33329 9.33403C8.33329 9.88631 8.78101 10.334 9.33329 10.334V8.33403ZM12.7773 16.4447V20.8887H14.7773V16.4447H12.7773ZM17.2226 16.4447V20.8887H19.2226V16.4447H17.2226ZM20 10.334H22.6666V8.33403H20V10.334ZM12 8.33403H9.33329V10.334H12V8.33403Z" fill="white"/>
</svg>
