<svg width="32" height="32" viewBox="0 0 32 32" fill="none" xmlns="http://www.w3.org/2000/svg">
<path d="M11.8314 25.3333C11.8314 25.8683 12.2651 26.302 12.8001 26.302C13.3352 26.302 13.7689 25.8683 13.7689 25.3333H11.8314ZM12.8001 22.3586L11.8321 22.3216C11.8316 22.334 11.8314 22.3463 11.8314 22.3586H12.8001ZM16.0001 19.3853L15.966 20.3534C15.9888 20.3542 16.0115 20.3542 16.0342 20.3534L16.0001 19.3853ZM19.2001 22.3586H20.1689C20.1689 22.3463 20.1686 22.334 20.1682 22.3216L19.2001 22.3586ZM18.2314 25.3333C18.2314 25.8683 18.6651 26.302 19.2001 26.302C19.7352 26.302 20.1689 25.8683 20.1689 25.3333H18.2314ZM12.8001 24.3645C12.2651 24.3645 11.8314 24.7982 11.8314 25.3332C11.8314 25.8682 12.2651 26.302 12.8001 26.302V24.3645ZM19.2001 26.302C19.7352 26.302 20.1689 25.8682 20.1689 25.3332C20.1689 24.7982 19.7352 24.3645 19.2001 24.3645V26.302ZM12.7999 26.302C13.3349 26.302 13.7686 25.8682 13.7686 25.3332C13.7686 24.7982 13.3349 24.3645 12.7999 24.3645V26.302ZM11.9999 25.3332V24.3645C11.9885 24.3645 11.9771 24.3647 11.9658 24.3651L11.9999 25.3332ZM7.19987 20.8719H6.23112C6.23112 20.8841 6.23135 20.8963 6.23182 20.9086L7.19987 20.8719ZM8.16862 11.9305C8.16862 11.3955 7.7349 10.9618 7.19987 10.9618C6.66484 10.9618 6.23112 11.3955 6.23112 11.9305H8.16862ZM3.45595 13.301C3.01326 13.6015 2.89798 14.2039 3.19845 14.6466C3.49892 15.0893 4.10137 15.2046 4.54405 14.9041L3.45595 13.301ZM7.74405 12.7321C8.18674 12.4316 8.30202 11.8292 8.00155 11.3865C7.70108 10.9438 7.09863 10.8285 6.65595 11.129L7.74405 12.7321ZM6.65585 11.1291C6.21316 11.4295 6.09784 12.032 6.39829 12.4747C6.69874 12.9173 7.30119 13.0327 7.74388 12.7322L6.65585 11.1291ZM14.1545 7.21064L13.629 6.39685C13.6228 6.40085 13.6166 6.40492 13.6105 6.40906L14.1545 7.21064ZM17.8452 7.21064L18.3892 6.40906C18.3831 6.40492 18.377 6.40085 18.3708 6.39685L17.8452 7.21064ZM24.2559 12.7322C24.6986 13.0327 25.301 12.9173 25.6014 12.4747C25.9019 12.032 25.7866 11.4295 25.3439 11.1291L24.2559 12.7322ZM19.1999 24.3645C18.6648 24.3645 18.2311 24.7982 18.2311 25.3332C18.2311 25.8682 18.6648 26.302 19.1999 26.302V24.3645ZM19.9999 25.3332L20.034 24.3651C20.0226 24.3647 20.0112 24.3645 19.9999 24.3645V25.3332ZM24.7999 20.8719L25.7679 20.9086C25.7684 20.8963 25.7686 20.8841 25.7686 20.8719H24.7999ZM25.7686 11.9305C25.7686 11.3955 25.3349 10.9618 24.7999 10.9618C24.2648 10.9618 23.8311 11.3955 23.8311 11.9305H25.7686ZM27.4563 14.9029C27.8991 15.2033 28.5015 15.0878 28.8018 14.645C29.1022 14.2023 28.9867 13.5998 28.544 13.2995L27.4563 14.9029ZM25.344 11.1288C24.9012 10.8285 24.2988 10.9439 23.9984 11.3867C23.6981 11.8295 23.8135 12.4319 24.2563 12.7322L25.344 11.1288ZM13.7689 25.3333V22.3586H11.8314V25.3333H13.7689ZM13.7682 22.3956C13.8129 21.2255 14.7958 20.3122 15.966 20.3534L16.0342 18.4171C13.7969 18.3383 11.9175 20.0846 11.8321 22.3216L13.7682 22.3956ZM16.0342 20.3534C17.2044 20.3122 18.1874 21.2255 18.2321 22.3956L20.1682 22.3216C20.0827 20.0846 18.2034 18.3383 15.966 18.4171L16.0342 20.3534ZM18.2314 22.3586V25.3333H20.1689V22.3586H18.2314ZM12.8001 26.302H19.2001V24.3645H12.8001V26.302ZM12.7999 24.3645H11.9999V26.302H12.7999V24.3645ZM11.9658 24.3651C9.9433 24.4363 8.2446 22.8574 8.16792 20.8352L6.23182 20.9086C6.34895 23.9981 8.94414 26.4102 12.034 26.3014L11.9658 24.3651ZM8.16862 20.8719V11.9305H6.23112V20.8719H8.16862ZM4.54405 14.9041L7.74405 12.7321L6.65595 11.129L3.45595 13.301L4.54405 14.9041ZM7.74388 12.7322L14.6986 8.01221L13.6105 6.40906L6.65585 11.1291L7.74388 12.7322ZM14.6801 8.02442C15.4835 7.50558 16.5163 7.50558 17.3196 8.02442L18.3708 6.39685C16.9276 5.46477 15.0722 5.46477 13.629 6.39685L14.6801 8.02442ZM17.3012 8.01221L24.2559 12.7322L25.3439 11.1291L18.3892 6.40906L17.3012 8.01221ZM19.1999 26.302H19.9999V24.3645H19.1999V26.302ZM19.9658 26.3014C23.0556 26.4102 25.6508 23.9981 25.7679 20.9086L23.8318 20.8352C23.7551 22.8574 22.0564 24.4363 20.034 24.3651L19.9658 26.3014ZM25.7686 20.8719V11.9305H23.8311V20.8719H25.7686ZM28.544 13.2995L25.344 11.1288L24.2563 12.7322L27.4563 14.9029L28.544 13.2995Z" fill="white"/>
<rect x="7" y="12" width="18" height="8" fill="white"/>
<rect x="8" y="19" width="5" height="6" rx="1" fill="white"/>
<rect x="19" y="19" width="5" height="6" rx="2" fill="white"/>
<path d="M13 25.5C12.5 23.5 12.4 19.5 16 19.5" stroke="black" stroke-width="2"/>
<path d="M19 25.5C19.5 23.5 19.6 19.5 16 19.5" stroke="black" stroke-width="2"/>
<rect x="11" y="24" width="10" height="2" fill="white"/>
<path d="M16 7L24.6603 13H7.33975L16 7Z" fill="white"/>
</svg>
