<svg width="18" height="18" viewBox="0 0 18 18" fill="none" xmlns="http://www.w3.org/2000/svg">
<path d="M4.54289 12.0429C4.15237 12.4334 4.15237 13.0666 4.54289 13.4571C4.93342 13.8476 5.56658 13.8476 5.95711 13.4571L4.54289 12.0429ZM9.70711 9.70711C10.0976 9.31658 10.0976 8.68342 9.70711 8.29289C9.31658 7.90237 8.68342 7.90237 8.29289 8.29289L9.70711 9.70711ZM8.29289 8.29289C7.90237 8.68342 7.90237 9.31658 8.29289 9.70711C8.68342 10.0976 9.31658 10.0976 9.70711 9.70711L8.29289 8.29289ZM13.4571 5.95711C13.8476 5.56658 13.8476 4.93342 13.4571 4.54289C13.0666 4.15237 12.4334 4.15237 12.0429 4.54289L13.4571 5.95711ZM9.70711 8.29289C9.31658 7.90237 8.68342 7.90237 8.29289 8.29289C7.90237 8.68342 7.90237 9.31658 8.29289 9.70711L9.70711 8.29289ZM12.0429 13.4571C12.4334 13.8476 13.0666 13.8476 13.4571 13.4571C13.8476 13.0666 13.8476 12.4334 13.4571 12.0429L12.0429 13.4571ZM8.29289 9.70711C8.68342 10.0976 9.31658 10.0976 9.70711 9.70711C10.0976 9.31658 10.0976 8.68342 9.70711 8.29289L8.29289 9.70711ZM5.95711 4.54289C5.56658 4.15237 4.93342 4.15237 4.54289 4.54289C4.15237 4.93342 4.15237 5.56658 4.54289 5.95711L5.95711 4.54289ZM5.95711 13.4571L9.70711 9.70711L8.29289 8.29289L4.54289 12.0429L5.95711 13.4571ZM9.70711 9.70711L13.4571 5.95711L12.0429 4.54289L8.29289 8.29289L9.70711 9.70711ZM8.29289 9.70711L12.0429 13.4571L13.4571 12.0429L9.70711 8.29289L8.29289 9.70711ZM9.70711 8.29289L5.95711 4.54289L4.54289 5.95711L8.29289 9.70711L9.70711 8.29289Z" fill="#2B2B2B"/>
</svg>
