<svg width="32" height="32" viewBox="0 0 32 32" fill="none" xmlns="http://www.w3.org/2000/svg">
<path d="M14.1839 9.87642C14.4839 9.59075 14.4955 9.11602 14.2098 8.81607C13.9241 8.51612 13.4494 8.50455 13.1494 8.79021L14.1839 9.87642ZM6.14945 15.4569C5.8495 15.7425 5.83792 16.2173 6.12358 16.5172C6.40925 16.8172 6.88398 16.8287 7.18393 16.5431L6.14945 15.4569ZM7.18393 15.4569C6.88398 15.1712 6.40925 15.1828 6.12358 15.4827C5.83792 15.7827 5.8495 16.2574 6.14945 16.5431L7.18393 15.4569ZM13.1494 23.2098C13.4494 23.4954 13.9241 23.4838 14.2098 23.1839C14.4955 22.8839 14.4839 22.4092 14.1839 22.1235L13.1494 23.2098ZM6.66669 15.25C6.25247 15.25 5.91669 15.5858 5.91669 16C5.91669 16.4142 6.25247 16.75 6.66669 16.75V15.25ZM25.3334 16.75C25.7476 16.75 26.0834 16.4142 26.0834 16C26.0834 15.5858 25.7476 15.25 25.3334 15.25V16.75ZM13.1494 8.79021L6.14945 15.4569L7.18393 16.5431L14.1839 9.87642L13.1494 8.79021ZM6.14945 16.5431L13.1494 23.2098L14.1839 22.1235L7.18393 15.4569L6.14945 16.5431ZM6.66669 16.75H25.3334V15.25H6.66669V16.75Z" fill="white"/>
</svg>
