<svg width="24" height="24" viewBox="0 0 24 24" fill="none" xmlns="http://www.w3.org/2000/svg">
<path fill-rule="evenodd" clip-rule="evenodd" d="M17.2 5.12758L18.766 6.37458C18.9172 6.51691 19.0025 6.71571 19.0013 6.92339C19.0002 7.13106 18.9128 7.32892 18.76 7.46958L17.57 8.89358L13.521 13.7226C13.4501 13.8037 13.3558 13.8607 13.251 13.8856L11.151 14.3616C10.8755 14.3754 10.6356 14.1751 10.6 13.9016V11.7436C10.6071 11.6395 10.649 11.5409 10.719 11.4636L14.693 6.97058L16.057 5.34158C16.3268 4.98786 16.8204 4.89545 17.2 5.12758Z" stroke="black" stroke-width="1.5" stroke-linecap="round" stroke-linejoin="round"/>
<path d="M11.533 7.61859C11.9472 7.61859 12.283 7.2828 12.283 6.86859C12.283 6.45438 11.9472 6.11859 11.533 6.11859V7.61859ZM8.73301 6.86859V6.11859L8.73121 6.11859L8.73301 6.86859ZM5.00001 10.6186H5.75001L5.75001 10.617L5.00001 10.6186ZM5.00001 16.2436L5.75001 16.2452V16.2436H5.00001ZM8.73301 19.9936L8.73121 20.7436H8.73301V19.9936ZM14.333 19.9936V20.7436L14.3348 20.7436L14.333 19.9936ZM18.066 16.2436H17.316L17.316 16.2452L18.066 16.2436ZM18.816 12.4936C18.816 12.0794 18.4802 11.7436 18.066 11.7436C17.6518 11.7436 17.316 12.0794 17.316 12.4936H18.816ZM15.3863 6.6844C15.2282 6.30153 14.7897 6.11928 14.4068 6.27734C14.0239 6.4354 13.8417 6.87391 13.9998 7.25678L15.3863 6.6844ZM17.7319 9.62191C18.1363 9.5325 18.3917 9.13215 18.3023 8.7277C18.2129 8.32326 17.8126 8.06786 17.4081 8.15727L17.7319 9.62191ZM7.80001 16.4316C7.3858 16.4316 7.05001 16.7674 7.05001 17.1816C7.05001 17.5958 7.3858 17.9316 7.80001 17.9316V16.4316ZM15.267 17.9316C15.6812 17.9316 16.017 17.5958 16.017 17.1816C16.017 16.7674 15.6812 16.4316 15.267 16.4316V17.9316ZM11.533 6.11859H8.73301V7.61859H11.533V6.11859ZM8.73121 6.11859C6.25081 6.12455 4.2447 8.1398 4.25001 10.6202L5.75001 10.617C5.74647 8.96486 7.08269 7.62256 8.73481 7.61859L8.73121 6.11859ZM4.25001 10.6186V16.2436H5.75001V10.6186H4.25001ZM4.25001 16.242C4.2447 18.7224 6.25081 20.7376 8.73121 20.7436L8.73481 19.2436C7.08269 19.2396 5.74647 17.8973 5.75001 16.2452L4.25001 16.242ZM8.73301 20.7436H14.333V19.2436H8.73301V20.7436ZM14.3348 20.7436C16.8152 20.7376 18.8213 18.7224 18.816 16.242L17.316 16.2452C17.3195 17.8973 15.9833 19.2396 14.3312 19.2436L14.3348 20.7436ZM18.816 16.2436V12.4936H17.316V16.2436H18.816ZM13.9998 7.25678C14.1947 7.72891 14.5923 8.39809 15.1866 8.91515C15.7944 9.44406 16.6679 9.85712 17.7319 9.62191L17.4081 8.15727C16.9431 8.26006 16.5391 8.10363 16.1712 7.78354C15.7897 7.45159 15.5134 6.99227 15.3863 6.6844L13.9998 7.25678ZM7.80001 17.9316H15.267V16.4316H7.80001V17.9316Z" fill="black"/>
</svg>
