<svg width="32" height="32" viewBox="0 0 32 32" fill="none" xmlns="http://www.w3.org/2000/svg">
<path fill-rule="evenodd" clip-rule="evenodd" d="M6.66675 12.0003C6.66675 9.05481 9.05456 6.66699 12.0001 6.66699H20.0001C22.9456 6.66699 25.3334 9.05481 25.3334 12.0003V20.0003C25.3334 22.9458 22.9456 25.3337 20.0001 25.3337H12.0001C9.05456 25.3337 6.66675 22.9458 6.66675 20.0003V12.0003Z" stroke="white" stroke-width="2" stroke-linecap="round" stroke-linejoin="round"/>
<path d="M21.3334 13C21.8857 13 22.3334 12.5523 22.3334 12C22.3334 11.4477 21.8857 11 21.3334 11V13ZM10.6668 11C10.1145 11 9.66677 11.4477 9.66677 12C9.66677 12.5523 10.1145 13 10.6668 13V11ZM20.0001 17C20.5524 17 21.0001 16.5523 21.0001 16C21.0001 15.4477 20.5524 15 20.0001 15V17ZM12.0001 15C11.4478 15 11.0001 15.4477 11.0001 16C11.0001 16.5523 11.4478 17 12.0001 17V15ZM18.6668 21C19.2191 21 19.6668 20.5523 19.6668 20C19.6668 19.4477 19.2191 19 18.6668 19V21ZM13.3334 19C12.7812 19 12.3334 19.4477 12.3334 20C12.3334 20.5523 12.7812 21 13.3334 21V19ZM21.3334 11H10.6668V13H21.3334V11ZM20.0001 15H12.0001V17H20.0001V15ZM18.6668 19H13.3334V21H18.6668V19Z" fill="white"/>
</svg>
