<svg width="32" height="32" viewBox="0 0 32 32" fill="none" xmlns="http://www.w3.org/2000/svg">
<path d="M25.5808 21.924C25.2218 22.7275 24.7967 23.4672 24.3043 24.1472C23.633 25.0743 23.0834 25.716 22.6598 26.0724C22.0032 26.6573 21.2997 26.9569 20.5464 26.9739C20.0056 26.9739 19.3534 26.8248 18.5942 26.5224C17.8325 26.2214 17.1325 26.0724 16.4925 26.0724C15.8212 26.0724 15.1013 26.2214 14.3312 26.5224C13.56 26.8248 12.9387 26.9824 12.4637 26.998C11.7413 27.0278 11.0213 26.7198 10.3025 26.0724C9.84376 25.6848 9.26997 25.0204 8.58259 24.0791C7.84508 23.0739 7.23875 21.9084 6.76374 20.5795C6.25502 19.1442 6 17.7543 6 16.4087C6 14.8673 6.34384 13.5379 7.03254 12.4239C7.57379 11.529 8.29386 10.8231 9.19508 10.3049C10.0963 9.78674 11.0701 9.52268 12.1187 9.50578C12.6925 9.50578 13.445 9.67771 14.38 10.0156C15.3125 10.3546 15.9112 10.5266 16.1737 10.5266C16.3699 10.5266 17.035 10.3255 18.1625 9.92474C19.2288 9.55306 20.1287 9.39916 20.8659 9.45978C22.8636 9.61595 24.3644 10.3788 25.3625 11.753C23.5758 12.8016 22.6921 14.2703 22.7097 16.1544C22.7258 17.622 23.2754 18.8432 24.3556 19.8129C24.8451 20.2629 25.3918 20.6108 26 20.8578C25.8681 21.2283 25.7289 21.5833 25.5808 21.924ZM20.9993 4.46013C20.9993 5.61039 20.5654 6.68439 19.7007 7.67847C18.6572 8.86024 17.395 9.54312 16.0262 9.43536C16.0088 9.29737 15.9987 9.15213 15.9987 8.99951C15.9987 7.89526 16.4949 6.71349 17.3762 5.74724C17.8162 5.25801 18.3758 4.85122 19.0544 4.52671C19.7315 4.20705 20.372 4.03027 20.9744 4C20.9919 4.15377 20.9993 4.30755 20.9993 4.46012V4.46013Z" fill="black"/>
</svg>
