<svg width="32" height="32" viewBox="0 0 32 32" fill="none" xmlns="http://www.w3.org/2000/svg">
<path fill-rule="evenodd" clip-rule="evenodd" d="M19.3026 18.6667H12.6972C10.7532 18.7633 9.0308 19.9507 8.24925 21.7334C7.30658 23.5841 9.18791 25.3334 11.3759 25.3334H20.6239C22.8132 25.3334 24.6946 23.5841 23.7506 21.7334C22.969 19.9507 21.2467 18.7633 19.3026 18.6667Z" stroke="white" stroke-width="2" stroke-linecap="round" stroke-linejoin="round"/>
<path fill-rule="evenodd" clip-rule="evenodd" d="M20 10.6667C20 12.8759 18.2091 14.6667 16 14.6667C13.7909 14.6667 12 12.8759 12 10.6667C12 8.45761 13.7909 6.66675 16 6.66675C17.0609 6.66675 18.0783 7.08818 18.8284 7.83832C19.5786 8.58847 20 9.60588 20 10.6667Z" stroke="white" stroke-width="2" stroke-linecap="round" stroke-linejoin="round"/>
</svg>
