<svg width="32" height="32" viewBox="0 0 32 32" fill="none" xmlns="http://www.w3.org/2000/svg">
<path fill-rule="evenodd" clip-rule="evenodd" d="M19.5895 6.6665H12.4108C10.8789 6.67497 9.41315 7.29164 8.33593 8.38086C7.25872 9.47007 6.65833 10.9426 6.66684 12.4745V19.5252C6.66685 19.7511 6.67976 19.9768 6.7055 20.2012C7.02843 23.1123 9.4819 25.3192 12.4108 25.3332H19.5895C21.1214 25.3247 22.5872 24.708 23.6644 23.6188C24.7416 22.5296 25.342 21.0571 25.3335 19.5252V12.4745C25.342 10.9426 24.7416 9.47007 23.6644 8.38086C22.5872 7.29164 21.1214 6.67497 19.5895 6.6665Z" stroke="white" stroke-width="2" stroke-linecap="round" stroke-linejoin="round"/>
<path fill-rule="evenodd" clip-rule="evenodd" d="M12.0708 11.3948C12.0708 11.7681 11.7681 12.0708 11.3948 12.0708C11.0214 12.0708 10.7188 11.7681 10.7188 11.3948C10.7188 11.0214 11.0214 10.7188 11.3948 10.7188C11.7681 10.7188 12.0708 11.0214 12.0708 11.3948Z" stroke="white" stroke-width="2" stroke-linecap="round" stroke-linejoin="round"/>
<path d="M6.70557 20.2011C7.42103 19.5597 8.08569 18.8638 8.69357 18.1197C9.59312 16.9027 11.1873 16.4244 12.6082 16.9451C15.9736 18.0117 18.9776 21.9304 21.8589 19.8931C22.9171 19.0856 23.736 18.0058 24.2282 16.7691C24.5178 16.0897 24.889 15.4481 25.3336 14.8584" stroke="white" stroke-width="2" stroke-linecap="round" stroke-linejoin="round"/>
</svg>
