<svg width="32" height="32" viewBox="0 0 32 32" fill="none" xmlns="http://www.w3.org/2000/svg">
<path d="M11.8314 25.3334C11.8314 25.8684 12.2651 26.3022 12.8001 26.3022C13.3352 26.3022 13.7689 25.8684 13.7689 25.3334H11.8314ZM12.8001 22.3587L11.8321 22.3218C11.8316 22.3341 11.8314 22.3464 11.8314 22.3587H12.8001ZM16.0001 19.3854L15.966 20.3536C15.9888 20.3544 16.0115 20.3544 16.0342 20.3536L16.0001 19.3854ZM19.2001 22.3587H20.1689C20.1689 22.3464 20.1686 22.3341 20.1682 22.3218L19.2001 22.3587ZM18.2314 25.3334C18.2314 25.8684 18.6651 26.3022 19.2001 26.3022C19.7352 26.3022 20.1689 25.8684 20.1689 25.3334H18.2314ZM12.8001 24.3646C12.2651 24.3646 11.8314 24.7983 11.8314 25.3333C11.8314 25.8684 12.2651 26.3021 12.8001 26.3021V24.3646ZM19.2001 26.3021C19.7352 26.3021 20.1689 25.8684 20.1689 25.3333C20.1689 24.7983 19.7352 24.3646 19.2001 24.3646V26.3021ZM12.7999 26.3021C13.3349 26.3021 13.7686 25.8684 13.7686 25.3333C13.7686 24.7983 13.3349 24.3646 12.7999 24.3646V26.3021ZM11.9999 25.3333V24.3646C11.9885 24.3646 11.9771 24.3648 11.9658 24.3652L11.9999 25.3333ZM7.19987 20.872H6.23112C6.23112 20.8842 6.23135 20.8965 6.23182 20.9087L7.19987 20.872ZM8.16862 11.9307C8.16862 11.3956 7.7349 10.9619 7.19987 10.9619C6.66484 10.9619 6.23112 11.3956 6.23112 11.9307H8.16862ZM3.45595 13.3011C3.01326 13.6016 2.89798 14.204 3.19845 14.6467C3.49892 15.0894 4.10137 15.2047 4.54405 14.9042L3.45595 13.3011ZM7.74405 12.7322C8.18674 12.4317 8.30202 11.8293 8.00155 11.3866C7.70108 10.9439 7.09863 10.8286 6.65595 11.1291L7.74405 12.7322ZM6.65585 11.1292C6.21316 11.4296 6.09784 12.0321 6.39829 12.4748C6.69874 12.9175 7.30119 13.0328 7.74388 12.7323L6.65585 11.1292ZM14.1545 7.21076L13.629 6.39697C13.6228 6.40097 13.6166 6.40504 13.6105 6.40918L14.1545 7.21076ZM17.8452 7.21076L18.3892 6.40918C18.3831 6.40504 18.377 6.40097 18.3708 6.39697L17.8452 7.21076ZM24.2559 12.7323C24.6986 13.0328 25.301 12.9175 25.6014 12.4748C25.9019 12.0321 25.7866 11.4296 25.3439 11.1292L24.2559 12.7323ZM19.1999 24.3646C18.6648 24.3646 18.2311 24.7983 18.2311 25.3333C18.2311 25.8684 18.6648 26.3021 19.1999 26.3021V24.3646ZM19.9999 25.3333L20.034 24.3652C20.0226 24.3648 20.0112 24.3646 19.9999 24.3646V25.3333ZM24.7999 20.872L25.7679 20.9087C25.7684 20.8965 25.7686 20.8842 25.7686 20.872H24.7999ZM25.7686 11.9307C25.7686 11.3956 25.3349 10.9619 24.7999 10.9619C24.2648 10.9619 23.8311 11.3956 23.8311 11.9307H25.7686ZM27.4563 14.903C27.8991 15.2034 28.5015 15.0879 28.8018 14.6452C29.1022 14.2024 28.9867 13.6 28.544 13.2996L27.4563 14.903ZM25.344 11.129C24.9012 10.8286 24.2988 10.9441 23.9984 11.3868C23.6981 11.8296 23.8135 12.432 24.2563 12.7324L25.344 11.129ZM13.7689 25.3334V22.3587H11.8314V25.3334H13.7689ZM13.7682 22.3957C13.8129 21.2257 14.7958 20.3123 15.966 20.3536L16.0342 18.4173C13.7969 18.3384 11.9175 20.0847 11.8321 22.3218L13.7682 22.3957ZM16.0342 20.3536C17.2044 20.3123 18.1874 21.2257 18.2321 22.3957L20.1682 22.3218C20.0827 20.0847 18.2034 18.3384 15.966 18.4173L16.0342 20.3536ZM18.2314 22.3587V25.3334H20.1689V22.3587H18.2314ZM12.8001 26.3021H19.2001V24.3646H12.8001V26.3021ZM12.7999 24.3646H11.9999V26.3021H12.7999V24.3646ZM11.9658 24.3652C9.9433 24.4364 8.2446 22.8576 8.16792 20.8353L6.23182 20.9087C6.34895 23.9982 8.94414 26.4103 12.034 26.3015L11.9658 24.3652ZM8.16862 20.872V11.9307H6.23112V20.872H8.16862ZM4.54405 14.9042L7.74405 12.7322L6.65595 11.1291L3.45595 13.3011L4.54405 14.9042ZM7.74388 12.7323L14.6986 8.01233L13.6105 6.40918L6.65585 11.1292L7.74388 12.7323ZM14.6801 8.02454C15.4835 7.5057 16.5163 7.5057 17.3196 8.02454L18.3708 6.39697C16.9276 5.46489 15.0722 5.46489 13.629 6.39697L14.6801 8.02454ZM17.3012 8.01233L24.2559 12.7323L25.3439 11.1292L18.3892 6.40918L17.3012 8.01233ZM19.1999 26.3021H19.9999V24.3646H19.1999V26.3021ZM19.9658 26.3015C23.0556 26.4103 25.6508 23.9982 25.7679 20.9087L23.8318 20.8353C23.7551 22.8576 22.0564 24.4364 20.034 24.3652L19.9658 26.3015ZM25.7686 20.872V11.9307H23.8311V20.872H25.7686ZM28.544 13.2996L25.344 11.129L24.2563 12.7324L27.4563 14.903L28.544 13.2996Z" fill="white"/>
</svg>
