<svg width="32" height="32" viewBox="0 0 32 32" fill="none" xmlns="http://www.w3.org/2000/svg">
<path fill-rule="evenodd" clip-rule="evenodd" d="M6.66663 13.6001V19.3774C6.67227 20.6093 7.16715 21.7885 8.04236 22.6555C8.91758 23.5224 10.1014 24.0061 11.3333 24.0001H20.6666C21.8985 24.0061 23.0823 23.5224 23.9576 22.6555C24.8328 21.7885 25.3276 20.6093 25.3333 19.3774V13.6001C25.3276 12.3682 24.8328 11.189 23.9576 10.322C23.0823 9.45509 21.8985 8.9714 20.6666 8.97742C20.0196 8.8916 19.4668 8.46875 19.2146 7.86676C18.8012 7.12388 18.0168 6.66428 17.1666 6.66676H14.8333C13.9831 6.66428 13.1987 7.12388 12.7853 7.86676C12.5331 8.46875 11.9803 8.8916 11.3333 8.97742C10.1014 8.9714 8.91758 9.45509 8.04236 10.322C7.16715 11.189 6.67227 12.3682 6.66663 13.6001Z" stroke="white" stroke-width="1.5" stroke-linecap="round" stroke-linejoin="round"/>
<path fill-rule="evenodd" clip-rule="evenodd" d="M16 19.3774C14.4078 19.362 13.1282 18.0614 13.1387 16.4691C13.1492 14.8769 14.4459 13.5933 16.0381 13.5989C17.6304 13.6045 18.918 14.8972 18.9173 16.4894C18.9135 17.2592 18.6039 17.996 18.0568 18.5376C17.5097 19.0792 16.7698 19.3813 16 19.3774Z" stroke="white" stroke-width="1.5" stroke-linecap="round" stroke-linejoin="round"/>
</svg>
