<svg width="32" height="32" viewBox="0 0 32 32" fill="none" xmlns="http://www.w3.org/2000/svg">
<path d="M16.8639 10.4555C17.1229 10.1323 17.0709 9.66025 16.7477 9.4012C16.4245 9.14216 15.9525 9.19417 15.6934 9.51739L16.8639 10.4555ZM8.41467 19.7984L8.9827 20.2882C8.98855 20.2814 8.99429 20.2745 8.9999 20.2675L8.41467 19.7984ZM8.18667 20.3558L7.43812 20.307L7.43747 20.3211L8.18667 20.3558ZM8 24.3864L7.2508 24.3517C7.24908 24.389 7.25013 24.4263 7.25396 24.4634L8 24.3864ZM9.04933 25.3024L9.07385 26.052C9.12387 26.0504 9.1736 26.0438 9.22229 26.0322L9.04933 25.3024ZM13.0493 24.3544L13.2223 25.0843L13.234 25.0814L13.0493 24.3544ZM13.5627 24.0291L14.1413 24.5064L14.1478 24.4983L13.5627 24.0291ZM22.2011 14.4556C22.4602 14.1325 22.4083 13.6605 22.0852 13.4013C21.7621 13.1422 21.29 13.1941 21.0309 13.5172L22.2011 14.4556ZM15.6976 9.51719C15.4384 9.84032 15.4903 10.3124 15.8134 10.5715C16.1366 10.8307 16.6086 10.7788 16.8677 10.4557L15.6976 9.51719ZM18.4 7.34643L18.9851 7.81568C18.9949 7.80338 19.0044 7.79079 19.0135 7.7779L18.4 7.34643ZM20.572 6.91977L21.0518 6.34333C21.0279 6.32345 21.0028 6.30507 20.9767 6.2883L20.572 6.91977ZM23.5547 9.40243L24.0855 8.87259C24.0692 8.85628 24.0522 8.84073 24.0345 8.82599L23.5547 9.40243ZM24.0039 10.4969L24.7539 10.5011V10.5011L24.0039 10.4969ZM23.5427 11.5864L23.0177 11.0508C22.9964 11.0716 22.9764 11.0937 22.9578 11.1169L23.5427 11.5864ZM21.0311 13.5169C20.7718 13.8399 20.8235 14.312 21.1465 14.5713C21.4695 14.8306 21.9416 14.779 22.2009 14.4559L21.0311 13.5169ZM17.0244 9.87529C16.963 9.46565 16.5812 9.18333 16.1715 9.24472C15.7619 9.3061 15.4796 9.68794 15.5409 10.0976L17.0244 9.87529ZM21.717 14.7296C22.1274 14.6738 22.4149 14.2959 22.3592 13.8855C22.3034 13.475 21.9255 13.1875 21.515 13.2433L21.717 14.7296ZM15.6934 9.51739L7.82943 19.3294L8.9999 20.2675L16.8639 10.4555L15.6934 9.51739ZM7.84664 19.3087C7.60564 19.5882 7.46227 19.9387 7.43826 20.307L8.93508 20.4046C8.93788 20.3616 8.95459 20.3208 8.9827 20.2882L7.84664 19.3087ZM7.43747 20.3211L7.2508 24.3517L8.7492 24.4211L8.93586 20.3905L7.43747 20.3211ZM7.25396 24.4634C7.34939 25.3886 8.1442 26.0824 9.07385 26.052L9.02481 24.5528C8.88241 24.5575 8.76066 24.4512 8.74604 24.3095L7.25396 24.4634ZM9.22229 26.0322L13.2223 25.0842L12.8764 23.6247L8.87637 24.5726L9.22229 26.0322ZM13.234 25.0814C13.5898 24.991 13.9076 24.7896 14.1412 24.5064L12.9841 23.5518C12.9534 23.5891 12.9115 23.6156 12.8647 23.6275L13.234 25.0814ZM14.1478 24.4983L22.2011 14.4556L21.0309 13.5172L12.9776 23.5599L14.1478 24.4983ZM16.8677 10.4557L18.9851 7.81568L17.8149 6.87719L15.6976 9.51719L16.8677 10.4557ZM19.0135 7.7779C19.2753 7.40556 19.7841 7.30562 20.1673 7.55123L20.9767 6.2883C19.917 5.60926 18.5106 5.88555 17.7865 6.91497L19.0135 7.7779ZM20.0922 7.49621L23.0749 9.97887L24.0345 8.82599L21.0518 6.34333L20.0922 7.49621ZM23.0238 9.93227C23.1722 10.0809 23.2551 10.2828 23.2539 10.4928L24.7539 10.5011C24.7573 9.8908 24.5166 9.30451 24.0855 8.87259L23.0238 9.93227ZM23.2539 10.4928C23.2528 10.7029 23.1677 10.9038 23.0177 11.0508L24.0676 12.1221C24.5035 11.6949 24.7505 11.1113 24.7539 10.5011L23.2539 10.4928ZM22.9578 11.1169L21.0311 13.5169L22.2009 14.4559L24.1275 12.0559L22.9578 11.1169ZM15.5409 10.0976C15.9865 13.0707 18.738 15.1344 21.717 14.7296L21.515 13.2433C19.349 13.5376 17.3483 12.0371 17.0244 9.87529L15.5409 10.0976Z" fill="white"/>
</svg>
