<svg width="42" height="42" viewBox="0 0 42 42" fill="none" xmlns="http://www.w3.org/2000/svg">
<circle cx="21" cy="21" r="20.5" stroke="white"/>
<path d="M13.8032 27.1365C13.5103 27.4294 13.5103 27.9043 13.8032 28.1972C14.0961 28.4901 14.5709 28.4901 14.8638 28.1972L13.8032 27.1365ZM21.5305 21.5305C21.8234 21.2376 21.8234 20.7627 21.5305 20.4698C21.2376 20.1769 20.7627 20.1769 20.4698 20.4698L21.5305 21.5305ZM20.4698 20.4698C20.1769 20.7627 20.1769 21.2376 20.4698 21.5305C20.7627 21.8234 21.2376 21.8234 21.5305 21.5305L20.4698 20.4698ZM28.1972 14.8638C28.4901 14.5709 28.4901 14.0961 28.1972 13.8032C27.9043 13.5103 27.4294 13.5103 27.1365 13.8032L28.1972 14.8638ZM21.5305 20.4698C21.2376 20.1769 20.7627 20.1769 20.4698 20.4698C20.1769 20.7627 20.1769 21.2376 20.4698 21.5305L21.5305 20.4698ZM27.1365 28.1972C27.4294 28.4901 27.9043 28.4901 28.1972 28.1972C28.4901 27.9043 28.4901 27.4294 28.1972 27.1365L27.1365 28.1972ZM20.4698 21.5305C20.7627 21.8234 21.2376 21.8234 21.5305 21.5305C21.8234 21.2376 21.8234 20.7627 21.5305 20.4698L20.4698 21.5305ZM14.8638 13.8032C14.5709 13.5103 14.0961 13.5103 13.8032 13.8032C13.5103 14.0961 13.5103 14.5709 13.8032 14.8638L14.8638 13.8032ZM14.8638 28.1972L21.5305 21.5305L20.4698 20.4698L13.8032 27.1365L14.8638 28.1972ZM21.5305 21.5305L28.1972 14.8638L27.1365 13.8032L20.4698 20.4698L21.5305 21.5305ZM20.4698 21.5305L27.1365 28.1972L28.1972 27.1365L21.5305 20.4698L20.4698 21.5305ZM21.5305 20.4698L14.8638 13.8032L13.8032 14.8638L20.4698 21.5305L21.5305 20.4698Z" fill="white"/>
</svg>
