<svg width="32" height="32" viewBox="0 0 32 32" fill="none" xmlns="http://www.w3.org/2000/svg">
<path d="M8.80304 22.1364C8.51015 22.4293 8.51015 22.9041 8.80304 23.197C9.09594 23.4899 9.57081 23.4899 9.8637 23.197L8.80304 22.1364ZM16.5304 16.5304C16.8233 16.2375 16.8233 15.7626 16.5304 15.4697C16.2375 15.1768 15.7626 15.1768 15.4697 15.4697L16.5304 16.5304ZM15.4697 15.4697C15.1768 15.7626 15.1768 16.2375 15.4697 16.5304C15.7626 16.8233 16.2375 16.8233 16.5304 16.5304L15.4697 15.4697ZM23.197 9.8637C23.4899 9.57081 23.4899 9.09594 23.197 8.80304C22.9041 8.51015 22.4293 8.51015 22.1364 8.80304L23.197 9.8637ZM16.5304 15.4697C16.2375 15.1768 15.7626 15.1768 15.4697 15.4697C15.1768 15.7626 15.1768 16.2375 15.4697 16.5304L16.5304 15.4697ZM22.1364 23.197C22.4293 23.4899 22.9041 23.4899 23.197 23.197C23.4899 22.9041 23.4899 22.4293 23.197 22.1364L22.1364 23.197ZM15.4697 16.5304C15.7626 16.8233 16.2375 16.8233 16.5304 16.5304C16.8233 16.2375 16.8233 15.7626 16.5304 15.4697L15.4697 16.5304ZM9.8637 8.80304C9.57081 8.51015 9.09594 8.51015 8.80304 8.80304C8.51015 9.09594 8.51015 9.57081 8.80304 9.8637L9.8637 8.80304ZM9.8637 23.197L16.5304 16.5304L15.4697 15.4697L8.80304 22.1364L9.8637 23.197ZM16.5304 16.5304L23.197 9.8637L22.1364 8.80304L15.4697 15.4697L16.5304 16.5304ZM15.4697 16.5304L22.1364 23.197L23.197 22.1364L16.5304 15.4697L15.4697 16.5304ZM16.5304 15.4697L9.8637 8.80304L8.80304 9.8637L15.4697 16.5304L16.5304 15.4697Z" fill="white"/>
</svg>
