<svg width="32" height="32" viewBox="0 0 32 32" fill="none" xmlns="http://www.w3.org/2000/svg">
<path d="M22.7846 9.46307C23.1854 9.35866 23.4257 8.94908 23.3213 8.54824C23.2169 8.1474 22.8073 7.90709 22.4065 8.0115L22.7846 9.46307ZM3.81667 13.6286L3.99725 14.3566L4.00571 14.3544L3.81667 13.6286ZM2.87764 14.6114L2.14223 14.4642L2.14223 14.4642L2.87764 14.6114ZM3.366 15.88L2.91915 16.4824C2.95934 16.5122 3.00241 16.5379 3.04772 16.5591L3.366 15.88ZM11.2775 20.4162C11.6526 20.5919 12.0991 20.4304 12.2749 20.0553C12.4507 19.6803 12.2891 19.2337 11.9141 19.0579L11.2775 20.4162ZM23.3213 8.92633C23.4257 8.52549 23.1854 8.11591 22.7846 8.0115C22.3837 7.9071 21.9742 8.1474 21.8698 8.54824L23.3213 8.92633ZM17.7042 27.5162L16.9784 27.3271L16.9763 27.3356L17.7042 27.5162ZM16.7214 28.4552L16.8686 29.1906L16.8686 29.1906L16.7214 28.4552ZM15.4528 27.9668L14.7737 28.2851C14.7949 28.3304 14.8207 28.3735 14.8505 28.4137L15.4528 27.9668ZM12.2749 19.4188C12.0991 19.0437 11.6526 18.8821 11.2775 19.0579C10.9024 19.2337 10.7409 19.6803 10.9167 20.0553L12.2749 19.4188ZM23.1259 9.26762C23.4188 8.97472 23.4188 8.49985 23.1259 8.20696C22.833 7.91406 22.3581 7.91406 22.0652 8.20696L23.1259 9.26762ZM11.0655 19.2067C10.7726 19.4996 10.7726 19.9745 11.0655 20.2674C11.3583 20.5603 11.8332 20.5603 12.1261 20.2674L11.0655 19.2067ZM22.4065 8.0115L3.62762 12.9028L4.00571 14.3544L22.7846 9.46307L22.4065 8.0115ZM3.63609 12.9006C2.8775 13.0888 2.29563 13.6979 2.14223 14.4642L3.61305 14.7586C3.6525 14.5615 3.80215 14.4049 3.99724 14.3565L3.63609 12.9006ZM2.14223 14.4642C1.98882 15.2306 2.29144 16.0167 2.91915 16.4824L3.81286 15.2777C3.65143 15.1579 3.5736 14.9557 3.61305 14.7586L2.14223 14.4642ZM3.04772 16.5591L11.2775 20.4162L11.9141 19.0579L3.68428 15.2009L3.04772 16.5591ZM21.8698 8.54824L16.9785 27.3271L18.43 27.7052L23.3213 8.92633L21.8698 8.54824ZM16.9763 27.3356C16.9279 27.5307 16.7713 27.6803 16.5742 27.7198L16.8686 29.1906C17.635 29.0372 18.244 28.4553 18.4322 27.6967L16.9763 27.3356ZM16.5742 27.7198C16.3771 27.7592 16.1749 27.6814 16.0552 27.52L14.8505 28.4137C15.3161 29.0414 16.1022 29.344 16.8686 29.1906L16.5742 27.7198ZM16.1319 27.6485L12.2749 19.4188L10.9167 20.0553L14.7737 28.2851L16.1319 27.6485ZM22.0652 8.20696L11.0655 19.2067L12.1261 20.2674L23.1259 9.26762L22.0652 8.20696Z" fill="white"/>
</svg>
