<svg width="32" height="32" viewBox="0 0 32 32" fill="none" xmlns="http://www.w3.org/2000/svg">
<path fill-rule="evenodd" clip-rule="evenodd" d="M19.3026 18.6665H12.6972C10.7532 18.763 9.0308 19.9505 8.24925 21.7332C7.30658 23.5838 9.18791 25.3332 11.3759 25.3332H20.6239C22.8132 25.3332 24.6946 23.5838 23.7506 21.7332C22.969 19.9505 21.2467 18.763 19.3026 18.6665Z" fill="white" stroke="white" stroke-width="2" stroke-linecap="round" stroke-linejoin="round"/>
<path fill-rule="evenodd" clip-rule="evenodd" d="M20 10.6665C20 12.8756 18.2091 14.6665 16 14.6665C13.7909 14.6665 12 12.8756 12 10.6665C12 8.45736 13.7909 6.6665 16 6.6665C17.0609 6.6665 18.0783 7.08793 18.8284 7.83808C19.5786 8.58822 20 9.60564 20 10.6665Z" fill="white" stroke="white" stroke-width="2" stroke-linecap="round" stroke-linejoin="round"/>
</svg>
