<svg width="24" height="24" viewBox="0 0 24 24" fill="none" xmlns="http://www.w3.org/2000/svg">
<path fill-rule="evenodd" clip-rule="evenodd" d="M7.75707 3.00003V3L7.75078 3.00005C7.05367 3.0059 6.3859 3.27459 5.87972 3.75003H5.75002V3.88021C5.26842 4.39681 5.00195 5.07892 5.00707 5.78695V19.5647C4.94579 20.2451 5.28666 20.9012 5.88272 21.2413C6.49348 21.5898 7.25352 21.5389 7.81234 21.112C7.82424 21.1029 7.83587 21.0935 7.84721 21.0837L11.6472 17.8027L11.6596 17.7918C11.7167 17.7403 11.8035 17.7403 11.8606 17.7918L11.8724 17.8022L15.6664 21.0842C15.6779 21.0942 15.6896 21.1038 15.7017 21.113C16.2608 21.5402 17.0213 21.591 17.6323 21.242C18.2284 20.9015 18.5689 20.2449 18.5071 19.5643V5.78697C18.5122 5.07206 18.2405 4.38356 17.75 3.8652V3.75003H17.6344C17.1282 3.27459 16.4605 3.0059 15.7634 3.00005V3.00003H15.7571H7.75707Z" fill="#D8FC4A"/>
</svg>
